<svg width="72" height="74" viewBox="0 0 72 74" fill="none" xmlns="http://www.w3.org/2000/svg">
<rect width="72" height="74" rx="36" fill="white"/>
<path d="M54.9995 36.0427C55.0097 36.6386 54.8483 37.2288 54.5267 37.7712C54.1889 38.3451 53.6709 38.843 53.0179 39.2233L31.2871 52.2049C30.5221 52.6526 29.6097 52.9279 28.6523 53H28.1344C27.3516 53.0002 26.5799 52.858 25.8825 52.5851C25.0363 52.2662 24.3201 51.7753 23.8119 51.1657C23.3037 50.5562 23.0229 49.8514 23.0001 49.128V24.9279C22.9954 24.2136 23.2529 23.5127 23.7432 22.9055C24.2176 22.2984 24.8972 21.8011 25.7099 21.4663C26.5226 21.1316 27.4382 20.9718 28.3596 21.0041C29.2874 21.0386 30.1881 21.2599 30.9718 21.6436L52.7251 32.7757C53.3872 33.1283 53.9412 33.5881 54.3465 34.124C54.7744 34.7117 54.9995 35.3703 54.9995 36.0427Z" fill="black"/>
</svg>
