<svg width="33" height="33" viewBox="0 0 33 33" fill="none" xmlns="http://www.w3.org/2000/svg">
<g clip-path="url(#clip0_7_18)">
<path fill-rule="evenodd" clip-rule="evenodd" d="M24.9028 14.4439C24.9028 15.8174 24.6323 17.1774 24.1067 18.4464C23.5811 19.7153 22.8107 20.8683 21.8395 21.8395C20.8683 22.8107 19.7153 23.5811 18.4464 24.1067C17.1774 24.6323 15.8174 24.9028 14.4439 24.9028C13.0704 24.9028 11.7104 24.6323 10.4414 24.1067C9.17248 23.5811 8.0195 22.8107 7.0483 21.8395C6.07709 20.8683 5.30669 19.7153 4.78108 18.4464C4.25547 17.1774 3.98494 15.8174 3.98494 14.4439C3.98494 11.67 5.08686 9.00973 7.0483 7.0483C9.00973 5.08686 11.67 3.98494 14.4439 3.98494C17.2178 3.98494 19.878 5.08686 21.8395 7.0483C23.8009 9.00973 24.9028 11.67 24.9028 14.4439ZM22.997 25.4606C20.1949 27.6361 16.669 28.6618 13.1372 28.329C9.60542 27.9963 6.33319 26.3301 3.98668 23.6696C1.64017 21.0091 0.395782 17.5544 0.506842 14.0087C0.617903 10.463 2.07606 7.09289 4.58448 4.58448C7.09289 2.07606 10.463 0.617903 14.0087 0.506842C17.5544 0.395782 21.0091 1.64017 23.6696 3.98668C26.3301 6.33319 27.9963 9.60542 28.329 13.1372C28.6618 16.669 27.6361 20.1949 25.4606 22.997L31.9452 29.4815C32.1165 29.6411 32.2538 29.8336 32.3491 30.0474C32.4444 30.2612 32.4956 30.492 32.4997 30.7261C32.5039 30.9601 32.4608 31.1926 32.3731 31.4097C32.2855 31.6267 32.155 31.8239 31.9894 31.9894C31.8239 32.155 31.6267 32.2855 31.4097 32.3731C31.1926 32.4608 30.9601 32.5039 30.7261 32.4997C30.492 32.4956 30.2612 32.4444 30.0474 32.3491C29.8336 32.2538 29.6411 32.1165 29.4815 31.9452L22.997 25.4606Z" fill="white"/>
</g>
<defs>
<clipPath id="clip0_7_18">
<rect width="32" height="32" fill="white" transform="translate(0.5 0.5)"/>
</clipPath>
</defs>
</svg>
