<svg width="57" height="57" viewBox="0 0 57 57" fill="none" xmlns="http://www.w3.org/2000/svg">
<path d="M28.5 56.5C43.964 56.5 56.5 43.964 56.5 28.5C56.5 13.036 43.964 0.5 28.5 0.5C13.036 0.5 0.5 13.036 0.5 28.5C0.5 43.964 13.036 56.5 28.5 56.5Z" fill="black"/>
<path d="M33.1375 0.8955C31.6053 0.635193 30.0541 0.502903 28.5 0.5C13.03 0.5 0.5 13.03 0.5 28.5C0.5 34.4395 2.36725 39.9275 5.505 44.4793C7.43 41.6513 11.8697 39.7 17.0165 39.7C20.5515 39.7 23.7487 40.6328 26.0395 42.1325L33.1375 0.8955ZM48.016 8.44675C52.8512 19.1392 48.6092 24.8512 48.6092 24.8512C45.328 14.9812 35.8255 13.5393 35.8255 13.5393C35.8255 13.5393 29.5745 47.2233 29.5745 47.6468C29.5745 51.2955 25.7 54.379 20.4395 55.3117C23.054 56.0987 25.7696 56.499 28.5 56.5C43.97 56.5 56.5 43.97 56.5 28.5C56.5 20.6372 53.2467 13.5375 48.016 8.44675Z" fill="white"/>
</svg>
