<svg width="27" height="27" viewBox="0 0 27 27" fill="none" xmlns="http://www.w3.org/2000/svg">
<path fill-rule="evenodd" clip-rule="evenodd" d="M18.2491 12.173C18.2491 13.0595 18.0745 13.9372 17.7353 14.7561C17.3961 15.5751 16.8989 16.3192 16.2721 16.946C15.6453 17.5728 14.9012 18.07 14.0822 18.4092C13.2633 18.7484 12.3855 18.923 11.4991 18.923C10.6127 18.923 9.73495 18.7484 8.916 18.4092C8.09705 18.07 7.35294 17.5728 6.72614 16.946C6.09935 16.3192 5.60215 15.5751 5.26293 14.7561C4.92371 13.9372 4.74911 13.0595 4.74911 12.173C4.74911 10.3828 5.46027 8.66593 6.72614 7.40006C7.99201 6.13419 9.7089 5.42303 11.4991 5.42303C13.2893 5.42303 15.0062 6.13419 16.2721 7.40006C17.538 8.66593 18.2491 10.3828 18.2491 12.173ZM17.0191 19.283C15.2107 20.687 12.9352 21.349 10.6558 21.1342C8.37646 20.9195 6.26463 19.8442 4.75024 18.1271C3.23585 16.4101 2.43274 14.1805 2.50442 11.8922C2.57609 9.60384 3.51716 7.42884 5.13604 5.80996C6.75492 4.19108 8.92992 3.25001 11.2182 3.17834C13.5066 3.10666 15.7362 3.90976 17.4532 5.42416C19.1702 6.93855 20.2456 9.05038 20.4603 11.3297C20.6751 13.6091 20.0131 15.8846 18.6091 17.693L22.7941 21.878C22.9046 21.981 22.9933 22.1052 23.0548 22.2432C23.1163 22.3812 23.1493 22.5302 23.152 22.6812C23.1547 22.8323 23.1269 22.9823 23.0703 23.1224C23.0137 23.2625 22.9295 23.3898 22.8227 23.4966C22.7158 23.6034 22.5886 23.6876 22.4485 23.7442C22.3084 23.8008 22.1584 23.8286 22.0073 23.8259C21.8563 23.8233 21.7073 23.7902 21.5693 23.7287C21.4313 23.6672 21.3071 23.5786 21.2041 23.468L17.0191 19.283Z" fill="white"/>
</svg>
